<?xml version="1.0" encoding="UTF-8"?>
<svg id="Capa_2" data-name="Capa 2" xmlns="http://www.w3.org/2000/svg" viewBox="0 0 338.74 298.01">
  <defs>
    <style>
      .cls-1 {
        fill: red;
        stroke-width: 0px;
      }
    </style>
  </defs>
  <g id="Layer_1" data-name="Layer 1">
    <g>
      <polygon class="cls-1" points="260.76 74.5 260.76 0 74.5 0 74.5 111.75 0 111.75 0 298.01 260.76 298.01 260.76 223.51 74.5 223.51 74.5 186.26 260.76 186.26 260.76 111.75 149.01 111.75 149.01 74.5 260.76 74.5"/>
      <g>
        <path class="cls-1" d="M294.73,22.36c0,12.47,9.46,22.5,21.93,22.5s22.07-9.89,22.07-22.5S329.13,0,316.66,0s-21.93,10.03-21.93,22.36ZM333.58,22.36c0,9.6-7.31,17.05-16.91,17.05s-16.77-7.46-16.77-17.05,7.17-16.78,16.77-16.78,16.91,7.32,16.91,16.78Z"/>
        <polygon class="cls-1" points="305.63 19.78 305.63 25.08 314.08 25.08 314.08 33.54 319.39 33.54 319.39 25.08 327.84 25.08 327.84 19.78 319.39 19.78 319.39 11.32 314.08 11.32 314.08 19.78 305.63 19.78"/>
      </g>
    </g>
  </g>
</svg>