<?xml version="1.0" encoding="UTF-8"?>
<svg id="Capa_2" data-name="Capa 2" xmlns="http://www.w3.org/2000/svg" viewBox="0 0 215.92 246.77">
  <defs>
    <style>
      .cls-1 {
        fill: #000;
        stroke-width: 0px;
      }
    </style>
  </defs>
  <g id="Capa_1-2" data-name="Capa 1">
    <g>
      <polygon class="cls-1" points="71.97 185.07 71.97 164.51 20.56 164.51 20.56 195.36 0 195.36 0 246.77 71.97 246.77 71.97 226.2 20.56 226.2 20.56 215.92 71.97 215.92 71.97 195.36 41.13 195.36 41.13 185.07 71.97 185.07"/>
      <polygon class="cls-1" points="143.95 102.82 143.95 82.26 92.54 82.26 92.54 113.1 71.97 113.1 71.97 164.51 143.95 164.51 143.95 143.95 92.54 143.95 92.54 133.67 143.95 133.67 143.95 113.1 113.1 113.1 113.1 102.82 143.95 102.82"/>
      <polygon class="cls-1" points="215.92 20.56 215.92 0 164.51 0 164.51 30.85 143.95 30.85 143.95 82.26 215.92 82.26 215.92 61.69 164.51 61.69 164.51 51.41 215.92 51.41 215.92 30.85 185.07 30.85 185.07 20.56 215.92 20.56"/>
    </g>
  </g>
</svg>