<svg xmlns="http://www.w3.org/2000/svg" width="146" height="32" viewBox="0 0 146 32" fill="none"><g id="Capa_2" clip-path="url(#clip0_1204_10340)"><path id="Vector" d="M105.945 31.5483V0.337402H114.027V31.5483H105.945Z" fill="white"></path><path id="Vector_2" d="M94.5356 8.84156V10.6982C93.2327 9.20671 91.303 8.38977 88.8325 8.38977C82.7238 8.38977 77.875 13.5018 77.875 20.1921C77.875 26.8823 82.7238 31.9944 88.8325 31.9944C91.303 31.9944 93.2327 31.1775 94.5356 29.6859V31.5426H102.168V8.84156H94.5356ZM90.0371 24.3573C87.7693 24.3573 85.9257 22.5068 85.9257 20.2168C85.9257 17.9269 87.7632 16.0764 90.0371 16.0764C92.3109 16.0764 94.1484 17.9269 94.1484 20.2168C94.1484 22.5068 92.3109 24.3573 90.0371 24.3573Z" fill="white"></path><path id="Vector_3" d="M128.76 8.38977C121.89 8.38977 116.586 13.5452 116.586 20.1921C116.586 26.839 121.883 31.9944 128.76 31.9944C135.637 31.9944 140.928 26.839 140.928 20.1921C140.928 13.5452 135.631 8.38977 128.76 8.38977ZM128.76 24.3573C126.493 24.3573 124.649 22.5068 124.649 20.2168C124.649 17.9269 126.486 16.0764 128.76 16.0764C131.034 16.0764 132.872 17.9269 132.872 20.2168C132.872 22.5068 131.034 24.3573 128.76 24.3573Z" fill="white"></path><g id="Group"><path id="Vector_4" d="M143.466 8.38794C142.053 8.38794 140.922 9.46482 140.922 10.8883C140.922 12.3117 142.04 13.401 143.466 13.401C144.892 13.401 145.998 12.3055 145.998 10.8883C145.998 9.471 144.861 8.38794 143.466 8.38794ZM143.466 12.813C142.378 12.813 141.536 11.9775 141.536 10.8883C141.536 9.79902 142.378 8.97589 143.466 8.97589C144.554 8.97589 145.365 9.79283 145.365 10.8883C145.365 11.9837 144.535 12.813 143.466 12.813Z" fill="white"></path><path id="Vector_5" d="M143.758 9.62646H143.156V10.5919H142.203V11.1985H143.156V12.1577H143.758V11.1985H144.717V10.5919H143.758V9.62646Z" fill="white"></path></g><path id="Vector_6" d="M67.998 21.4592H67.9857C67.4572 23.1302 65.9208 24.3556 64.0895 24.3556C61.8217 24.3556 59.9781 22.5051 59.9781 20.2152C59.9781 17.9253 61.8156 16.0748 64.0895 16.0748C65.9085 16.0748 67.4326 17.2755 67.9734 18.9217H76.0979C75.514 12.9494 70.53 8.38196 64.1509 8.38196C57.2802 8.38196 51.9766 13.5374 51.9766 20.1843C51.9766 26.8312 57.274 31.9866 64.1509 31.9866C70.53 31.9866 75.514 27.4192 76.0979 21.4468H68.0042L67.998 21.4592Z" fill="white"></path><path id="Vector_7" d="M27.1265 8.14773V0.33728H7.74955V12.0468H0V31.5605H27.1265V23.7563H7.74955V19.851H27.1265V12.0468H15.4991V8.14773H27.1265Z" fill="white"></path><path id="Vector_8" d="M43.5229 17.9329L40.8741 17.4378C38.631 17.0293 38.0472 16.4414 38.0472 15.6306C38.0472 14.727 38.8092 14.2753 39.9769 14.2753C41.6853 14.2753 42.2261 16.3485 42.2261 16.3485H50.1723C50.1723 16.3485 50.0556 8.39575 40.069 8.39575C34.2308 8.39575 30.101 11.3355 30.101 15.7235C30.101 19.2945 31.8094 21.5101 36.9717 22.4632L39.6696 22.9583C42.0049 23.4101 42.3183 23.8186 42.3183 24.6789C42.3183 25.5825 41.5993 26.1271 40.2534 26.1271C38.1824 26.1271 37.6416 23.7629 37.6416 23.7629H29.6954C29.6954 23.7629 29.5909 32.0066 40.2964 32.0066C46.2699 32.0066 50.3567 29.1597 50.3567 24.5922C50.3567 21.1574 48.6974 18.8922 43.529 17.9453L43.5229 17.9329Z" fill="white"></path></g><defs><clipPath id="clip0_1204_10340"><rect width="146" height="31.6627" fill="white" transform="translate(0 0.337402)"></rect></clipPath></defs></svg>