<?xml version="1.0" encoding="UTF-8"?>
<svg id="Capa_2" data-name="Capa 2" xmlns="http://www.w3.org/2000/svg" viewBox="0 0 16 16">
  <defs>
    <style>
      .cls-1 {
        fill: #fff;
        stroke-width: 0px;
      }
    </style>
  </defs>
  <g id="Capa_1-2" data-name="Capa 1">
    <g>
      <path class="cls-1" d="M8.02,0C3.58,0,0,3.44,0,7.97s3.53,8.03,8.02,8.03,7.98-3.49,7.98-8.03S12.42,0,8.02,0ZM8.02,14.12c-3.42,0-6.08-2.66-6.08-6.15S4.6,1.88,8.02,1.88s5.98,2.61,5.98,6.1-2.61,6.15-5.98,6.15Z"/>
      <polygon class="cls-1" points="8.95 3.96 7.05 3.96 7.05 7.04 4.04 7.04 4.04 8.96 7.05 8.96 7.05 12.04 8.95 12.04 8.95 8.96 11.96 8.96 11.96 7.04 8.95 7.04 8.95 3.96"/>
    </g>
  </g>
</svg>