<?xml version="1.0" encoding="UTF-8"?>
<svg id="Capa_2" data-name="Capa 2" xmlns="http://www.w3.org/2000/svg" viewBox="0 0 457.38 398.43">
  <defs>
    <style>
      .cls-1 {
        fill: #fff;
      }

      .cls-2 {
        fill: #4a4a49;
      }

      .cls-3 {
        fill: #39c1ad;
      }
    </style>
  </defs>
  <g id="Capa_2-2" data-name="Capa 2">
    <g>
      <circle class="cls-2" cx="373.75" cy="121.52" r="44.52"/>
      <circle class="cls-2" cx="407.22" cy="177.5" r="44.52"/>
      <path class="cls-2" d="m411.17,218.52c-4.96,0-9.94-.81-14.78-2.44-24.15-8.13-37.18-34.39-29.05-58.54s34.38-37.18,58.54-29.05c11.7,3.94,21.16,12.2,26.65,23.25,5.49,11.06,6.34,23.59,2.4,35.29h0c-3.94,11.7-12.2,21.16-23.25,26.65-6.48,3.22-13.47,4.84-20.5,4.84h-.01Zm0-89.07c-17.89,0-34.61,11.3-40.63,29.17-7.53,22.38,4.55,46.72,26.93,54.26,10.84,3.65,22.46,2.86,32.7-2.23,10.25-5.09,17.9-13.86,21.55-24.7h0c3.65-10.84,2.86-22.46-2.23-32.7-5.09-10.25-13.86-17.9-24.7-21.55-4.51-1.52-9.11-2.24-13.63-2.24h.01Z"/>
      <path class="cls-2" d="m388.67,122.29c-2.7,0-5.41-.44-8.05-1.33-6.37-2.14-11.52-6.64-14.51-12.66-2.99-6.02-3.45-12.84-1.31-19.21s6.64-11.52,12.66-14.51c6.01-2.99,12.83-3.45,19.21-1.31,13.14,4.42,20.24,18.72,15.82,31.86h0c-2.14,6.37-6.64,11.52-12.66,14.51-3.53,1.75-7.33,2.64-11.16,2.64h0Zm-.04-46.94c-3.31,0-6.61.77-9.66,2.28-5.21,2.59-9.1,7.05-10.96,12.56s-1.45,11.42,1.13,16.63c2.59,5.21,7.05,9.1,12.56,10.96s11.42,1.45,16.63-1.13c5.21-2.59,9.1-7.05,10.95-12.56h0c3.83-11.38-2.31-23.75-13.69-27.58-2.28-.77-4.63-1.15-6.97-1.15h0Zm22.26,29.26h.02-.02Z"/>
      <circle class="cls-2" cx="324.2" cy="71.68" r="59.72" transform="translate(44.27 250.24) rotate(-45)"/>
      <circle class="cls-2" cx="348.83" cy="165.92" r="38.5"/>
      <path class="cls-3" d="m174.81,134.83v-.06c3.52-1.39,6.89-2.63,9.89-3.58,9.78-3.08,14.23-4.79,17.9-5.42,4.17-.75,7.32-.11,16.19,1.48,16.65,3,124.03,28.77,145.36,42.07l5.59,56.78s-1.2,25.54-19.86,27.97c-21.65,2.82-86.89-9.72-110.82-13.99-5.73-1.03-9.15-1.69-9.15-1.69l-11.33,50.59L2.61,300.19l14.67-86.53c3.97-23.41,21.22-42.35,44.15-48.49l113.39-30.34h-.01Z"/>
      <g>
        <g>
          <path class="cls-1" d="m425.07,342.58c4.63-13.61,22.26-39.41,22.26-54.4,0-80.7-72.27-146.13-161.42-146.13s-161.42,65.42-161.42,146.13c0,14.99,2.5,29.45,7.13,43.06l293.45,11.34h0Z"/>
          <path class="cls-2" d="m426.27,344.32l-1.26-.05-294.61-11.38-.37-1.1c-4.79-14.08-7.22-28.75-7.22-43.61,0-81.51,73.17-147.82,163.11-147.82s163.11,66.31,163.11,147.82c0,10.04-7.38,24.34-13.9,36.95-3.52,6.81-6.84,13.25-8.46,17.99l-.41,1.19h.01Zm-293.41-14.71l291.05,11.25c1.8-4.82,4.93-10.88,8.23-17.26,6.34-12.27,13.52-26.18,13.52-35.4,0-79.64-71.66-144.44-159.73-144.44s-159.73,64.79-159.73,144.44c0,14.1,2.24,28.02,6.67,41.42h-.01Z"/>
        </g>
        <g>
          <ellipse class="cls-2" cx="281.1" cy="23.32" rx="28.15" ry="23.32"/>
          <g>
            <path class="cls-1" d="m295.54,164.72l-.61-.05c-12.64-1.04-22.45-11.45-22.74-24.13l-.77-33.53,51.82-1.18-.91,34.84c-.37,14.22-12.62,25.21-26.8,24.04h0Z"/>
            <path class="cls-2" d="m297.64,166.49c-.74,0-1.49-.03-2.23-.09l-.61-.05c-13.54-1.12-23.98-12.2-24.29-25.77l-.77-33.53c0-.45.16-.88.47-1.2.31-.33.73-.51,1.18-.52l51.82-1.18c.38,0,.91.17,1.23.5.33.33.51.78.49,1.24l-.91,34.84c-.19,7.35-3.31,14.1-8.78,19.01-4.91,4.41-11.09,6.77-17.61,6.77v-.02Zm-24.47-57.83l.73,31.84c.27,11.84,9.38,21.51,21.18,22.48l.61.05h0c6.39.53,12.54-1.54,17.31-5.82s7.49-10.17,7.66-16.58l.87-33.07-48.36,1.1Z"/>
          </g>
          <g>
            <path class="cls-1" d="m310.52,117.78c11.91-3.79,22.55-12.13,29.13-24.15,13.29-24.29,4.7-53.88-18.52-67.29-38.1-22-62.89,9.32-65.61,17.02-.64,1.81-1.26,3.55-1.87,5.24-1.36,2.71-2.47,5.48-3.32,8.28-2.64,5.79-5.55,9.94-9.59,11.32-6.18,2.11-2.83,49.99,32.97,46.47l36.81,3.11h0Z"/>
            <path class="cls-2" d="m310.52,119.47c-.72,0-1.38-.46-1.61-1.18-.28-.89.21-1.84,1.1-2.12,12.01-3.82,22.01-12.11,28.16-23.35,12.76-23.3,4.9-51.86-17.88-65.02-13.63-7.87-26.78-9.55-39.1-5-14.4,5.32-22.8,17.52-24.07,21.13-.64,1.81-1.26,3.57-1.88,5.26-.02.06-.05.12-.08.18-1.3,2.59-2.38,5.28-3.21,8.01-.02.07-.05.14-.08.21-3.21,7.05-6.48,10.81-10.58,12.22-1.45.93-2.59,10.62,1.24,21.68,3.07,8.87,11.18,23.44,31.02,21.51.93-.08,1.76.59,1.85,1.52s-.59,1.76-1.52,1.85c-6.82.67-29.64.52-36.2-29.67-1.88-8.68-1.64-18.66,2.51-20.08,3.13-1.07,5.77-4.26,8.55-10.32.87-2.84,2-5.65,3.35-8.35.6-1.65,1.21-3.36,1.83-5.13,1.92-5.43,11.54-17.8,26.09-23.17,13.3-4.92,27.42-3.15,41.96,5.25,24.39,14.08,32.8,44.64,19.16,69.57-6.57,12-17.25,20.86-30.09,24.95-.17.05-.34.08-.51.08v-.03Z"/>
          </g>
          <path class="cls-2" d="m329.8,17.96c-15.72-8.6-34.03-8.07-49.15-.25,4.7,1.12,9.31,2.83,13.71,5.24,29.85,16.34,39.14,56.81,20.75,90.41-1.02,1.87-2.12,3.66-3.26,5.4,15.47-2.88,29.74-12.63,38.04-27.8,14.42-26.35,5.43-59.03-20.09-73h0Z"/>
          <path class="cls-2" d="m277.26,14.3s4.18,14.2,16.05,21.09c6.27,3.64-5.76,2.5-4.83,9.96,6.92,55.91,11.37,66.48,11.37,66.48,1.05,4.8,5.1,8.36,9.99,8.78l14.74,1.27,4.63-13.53,7.52-58.3s-30.25-43.65-59.47-35.76h0Z"/>
          <path class="cls-2" d="m248.35,92.59c-.85,0-1.58-.64-1.68-1.51-.1-.93.57-1.76,1.5-1.87,3.44-.38,5.35-3.72,5.37-3.76.46-.81,1.48-1.1,2.3-.66.81.45,1.11,1.47.67,2.29-.11.2-2.74,4.91-7.96,5.49h-.19v.02Z"/>
          <path class="cls-2" d="m269.82,54.46c-.07,0-.15,0-.23,0-.92-.13-1.57-.98-1.45-1.9.16-1.16-.84-3.42-2.71-5.06-1.11-.97-3.42-2.47-6.48-1.63-.9.25-1.83-.28-2.08-1.18s.28-1.83,1.18-2.08c3.39-.93,6.8-.1,9.6,2.35,2.59,2.26,4.17,5.58,3.84,8.05-.11.85-.84,1.46-1.67,1.46h0Z"/>
          <path class="cls-2" d="m259.18,60.73c-.87,1.23-2.29,1.71-3.17,1.09-.88-.62-.89-2.12-.02-3.35s2.29-1.71,3.17-1.09c.88.62.89,2.12.02,3.35Z"/>
          <path class="cls-2" d="m290.35,40.34s-20.17,14.71-17.65,25.21c2.52,10.5,16.05,12.71,18.91,30.67,9.07,56.95,48.03,54.7,48.03,54.7,0,0-14.42-32.44-49.29-110.59h0Z"/>
          <circle class="cls-1" cx="289.37" cy="83.93" r="14.4"/>
          <path class="cls-2" d="m282.91,89.1c-.93,0-1.69-.76-1.69-1.69,0-7.14,10.68-10.42,11.14-10.56.89-.27,1.84.24,2.1,1.13.27.89-.24,1.84-1.13,2.11-2.43.73-8.73,3.48-8.73,7.32,0,.93-.76,1.69-1.69,1.69Z"/>
        </g>
      </g>
      <path class="cls-3" d="m19.14,285.84c-1.6.66-3.16,1.38-4.66,2.18-20.31,10.71-16.13,32.3-6.43,44.29,6.15,7.6,17.01,12.42,28.9,13.89,10.68,1.32,22.14.16,33.1-2.45,10.52-2.5,20.36-6.37,30.19-10.43,9.8-4.05,19.97-7.47,29.62-11.76,5.42-2.4,10.72-5,15.78-7.85,3.1-1.76,7.05-3.81,8.24-6.72,1.17-2.84-1-5.74-2.4-8.03-1.72-2.82-3.34-5.57-4.47-8.6-3.01-8.09-6.03-16.18-9.04-24.27-.38-1.02-.78-2.07-1.67-2.85-2.15-1.89-6.71-.68-9.7-.31-4.35.54-8.7,1.13-13.05,1.75-8.88,1.27-17.74,2.7-26.58,4.28-19.45,3.49-38.79,7.47-57.71,13.35-3.43,1.07-6.86,2.19-10.14,3.55l.02-.02Z"/>
      <path class="cls-1" d="m29.27,284.07c-.27,0-.55-.06-.81-.19-.87-.45-1.23-1.51-.79-2.39.56-1.11,14.54-27.25,89.05-29.53.95-.06,1.81.74,1.84,1.73.03.99-.74,1.81-1.73,1.84-72,2.2-85.84,27.31-85.97,27.57-.32.61-.95.97-1.59.97Z"/>
      <g>
        <path class="cls-1" d="m121.69,179.25c-18.97,0-36.76-6.19-47.26-16.31l103.11-26.55c.6,2.14.91,4.3.91,6.44,0,20.08-25.46,36.42-56.76,36.42h0Z"/>
        <path class="cls-2" d="m176.31,138.45c.3,1.46.45,2.92.45,4.38,0,19.15-24.71,34.73-55.07,34.73-17.22,0-33.39-5.18-43.78-13.78l98.39-25.34h0Zm2.36-4.09l-107.47,27.67c10.14,11.31,28.95,18.92,50.49,18.92,32.28,0,58.45-17.06,58.45-38.11,0-2.91-.52-5.75-1.47-8.48h0Z"/>
      </g>
      <g>
        <path class="cls-2" d="m143.37,112.71l-19.7,5.45c-22.64,6.27-46.29-7.13-52.56-29.77l-2.16-7.81c-7.85-28.35,8.93-57.97,37.28-65.82l4.32,7.21c17.77-4.92,36.34,5.6,41.26,23.37l9.76,35.25c3.83,13.83-4.36,28.28-18.19,32.11h0Z"/>
        <path class="cls-2" d="m173.66,34.24c3.16,11.41-3.53,23.23-14.95,26.39s-23.23-3.53-26.39-14.95c-3.16-11.41,3.53-23.23,14.95-26.39,11.41-3.16,23.23,3.53,26.39,14.95Z"/>
        <g>
          <polygon class="cls-1" points="103.81 157.71 112.22 89.45 156.45 94.16 151.36 145.47 103.81 157.71"/>
          <path class="cls-2" d="m103.81,159.4c-.07,0-.14,0-.21-.01-.93-.11-1.58-.96-1.47-1.88l8.41-68.26c.11-.91.94-1.56,1.86-1.47l44.23,4.7c.92.1,1.6.92,1.5,1.85l-5.1,51.32c-.09.93-.92,1.6-1.85,1.52-.93-.09-1.61-.92-1.52-1.85l4.93-49.65-40.91-4.35-8.2,66.6c-.11.86-.83,1.48-1.68,1.48h.01Z"/>
        </g>
        <polygon class="cls-2" points="111.9 123.04 151.1 146.21 156.08 99.36 146.37 94.77 126.49 92.65 111.9 123.04"/>
        <g>
          <path class="cls-1" d="m86.38,113.66c-2.51-5.93-1.36-12.24,2.17-16.8-.42-1.14-.81-2.3-1.14-3.49l-7.33-26.48c-2.42-8.75,2.76-17.89,11.5-20.31l40.19-11.12c18.11-5.01,37.03,5.7,42.04,23.81l4.06,14.68c5.59,20.21-6.36,41.31-26.57,46.91l-10.34,2.86c-10.41,2.88-21.02,1.67-30.13-2.63-1.98,1.29-4.29,2.19-6.84,2.55-7.38,1.03-14.73-3.11-17.63-9.98h.02Z"/>
          <path class="cls-2" d="m129.48,126.96c-6.33,0-12.64-1.33-18.51-3.96-2.07,1.2-4.32,1.97-6.72,2.31-8.11,1.13-16.25-3.49-19.42-10.99-2.51-5.95-1.82-12.5,1.83-17.73-.34-.97-.63-1.88-.87-2.76l-7.33-26.48c-1.29-4.67-.68-9.57,1.72-13.81s6.3-7.29,10.96-8.58l40.19-11.12c9.2-2.54,18.86-1.34,27.22,3.39s14.36,12.4,16.9,21.6l4.06,14.68c5.85,21.16-6.59,43.13-27.75,48.99l-10.34,2.86c-3.91,1.08-7.93,1.62-11.95,1.62v-.02Zm-18.62-7.56c.25,0,.49.05.72.16,9.07,4.28,19.35,5.18,28.95,2.53l10.34-2.86c19.36-5.36,30.75-25.47,25.39-44.83l-4.06-14.68c-2.3-8.32-7.74-15.27-15.31-19.56-7.57-4.29-16.32-5.38-24.65-3.08l-40.19,11.12c-3.8,1.05-6.96,3.53-8.92,6.99-1.96,3.45-2.46,7.45-1.4,11.24l7.33,26.48c.29,1.05.65,2.15,1.1,3.35.2.55.11,1.16-.25,1.62-3.38,4.36-4.1,10.01-1.95,15.11h0c2.58,6.12,9.24,9.9,15.84,8.96,2.22-.31,4.29-1.08,6.16-2.29.28-.18.6-.27.92-.27h-.02Z"/>
        </g>
        <path class="cls-2" d="m98.04,91.95c-6.13,1.7-10.51,6.6-11.83,12.39-11.56-12.18-16.22-29.88-11.39-46.6,7.16-2.75,15.21-2.85,22.63.35,14.4,6.22,21.37,22.68,16.77,38.07-4.12-4.05-10.21-5.87-16.18-4.22h0Z"/>
        <path class="cls-2" d="m107.89,106.61c-.61,0-1.2-.33-1.5-.9-.04-.07-2.78-5.12-7.67-5.51-.93-.08-1.62-.89-1.55-1.82.08-.93.91-1.61,1.82-1.55,6.78.55,10.25,7.03,10.39,7.31.43.83.11,1.85-.71,2.28-.25.13-.52.19-.78.19Z"/>
        <path class="cls-2" d="m138.74,74.99c1.04,1.98,2.91,3.04,4.17,2.38,1.26-.66,1.43-2.81.39-4.78-1.04-1.98-2.91-3.04-4.17-2.38-1.26.66-1.43,2.81-.39,4.78Z"/>
        <path class="cls-2" d="m161.86,67.01c1.04,1.98,2.91,3.04,4.17,2.38,1.26-.66,1.43-2.81.39-4.78-1.04-1.98-2.91-3.04-4.17-2.38-1.26.66-1.43,2.81-.39,4.78Z"/>
        <path class="cls-2" d="m130.23,69.9c-.25,0-.51-.06-.75-.18-.84-.42-1.17-1.43-.76-2.27,3.12-6.24,10.63-7.05,10.94-7.08.93-.09,1.76.59,1.85,1.52.09.93-.58,1.75-1.51,1.85-.09,0-5.99.69-8.26,5.23-.3.59-.89.93-1.51.93h0Z"/>
        <path class="cls-2" d="m157.19,97.93c-2,0-3.92-.84-5.74-2.51-.69-.63-.73-1.7-.1-2.39.63-.69,1.7-.73,2.39-.1,1.43,1.31,2.8,1.82,4.21,1.54,3.43-.67,6.53-5.74,7.44-7.64.4-.84,1.41-1.2,2.25-.8.84.4,1.2,1.41.8,2.25-.16.34-4.03,8.37-9.84,9.51-.47.09-.95.14-1.41.14Z"/>
        <path class="cls-2" d="m162.95,76.77c-.08,0-.16,0-.24-.02-6.08-.88-10.24-7.08-9.26-13.83.98-6.75,6.72-11.53,12.8-10.64.92.13,1.56.99,1.43,1.91s-.98,1.59-1.91,1.43c-4.25-.61-8.26,2.88-8.97,7.78s2.16,9.39,6.4,10c.92.13,1.56.99,1.43,1.91-.12.84-.84,1.45-1.67,1.45h0Z"/>
        <circle class="cls-2" cx="136.88" cy="29.65" r="22.06"/>
        <path class="cls-2" d="m81.45,46.28c-.57,0-1.13-.29-1.45-.82-3.03-5.03-10.04-4.61-10.11-4.61-.94.1-1.74-.64-1.8-1.57-.07-.93.63-1.74,1.56-1.8.37-.03,9.14-.59,13.25,6.24.48.8.22,1.84-.58,2.32-.27.17-.57.24-.87.24Z"/>
        <path class="cls-2" d="m82.15,45.55c-.17,0-.33-.02-.5-.08-7.61-2.35-9.17-11-9.23-11.36-.16-.92.46-1.79,1.38-1.95.93-.15,1.79.46,1.95,1.38.02.11,1.31,6.98,6.9,8.71.89.28,1.39,1.22,1.12,2.11-.22.73-.89,1.19-1.61,1.19h0Z"/>
        <path class="cls-2" d="m99.78,23.45c-21.57,9.03-33.8,32.53-28.27,55.69,5.97,1.95,12.64,2.23,19.26.39,17.19-4.76,27.46-21.87,22.93-38.23-2.16-7.79-7.28-14-13.92-17.85h0Z"/>
        <circle class="cls-2" cx="113.08" cy="35.15" r="21.45"/>
      </g>
      <g>
        <g>
          <path class="cls-1" d="m111.59,146.98l-10.74,9.31,10.74,169.85c95.82,7.86,147.76,36.73,147.76,36.73v-179.16s-51.94-28.87-147.76-36.73h0Z"/>
          <path class="cls-2" d="m259.35,364.46c-.27,0-.53-.07-.77-.2-.52-.29-52.8-28.8-147.12-36.53-.79-.06-1.41-.7-1.46-1.48l-10.74-169.85c-.03-.5.17-.98.55-1.3l10.74-9.31c.32-.28.73-.42,1.17-.38,95.06,7.79,147.88,36.63,148.4,36.92.51.28.82.81.82,1.39v179.16c0,.56-.3,1.08-.78,1.37-.25.15-.53.22-.81.22h0Zm-146.26-39.8c83,7.01,133.48,30.02,144.67,35.59v-175.59c-6.97-3.62-58.13-28.77-145.63-36.04l-9.64,8.36,10.6,167.69h0Z"/>
        </g>
        <g>
          <path class="cls-1" d="m406.72,146.98l11.1,7.56-11.1,171.59c-95.82,7.86-147.76,36.73-147.76,36.73v-179.16s51.94-28.87,147.76-36.73h0Z"/>
          <path class="cls-2" d="m258.96,364.46c-.28,0-.56-.07-.81-.22-.49-.29-.78-.81-.78-1.37v-179.16c0-.58.31-1.11.82-1.39.52-.29,53.34-29.13,148.4-36.92.38-.03.72.06,1.03.27l11.1,7.56c.46.32.73.85.69,1.42l-11.1,171.6c-.05.79-.67,1.42-1.46,1.48-94.38,7.74-146.6,36.25-147.12,36.53-.24.13-.51.2-.77.2h0Zm1.59-179.8v175.59c11.18-5.57,61.67-28.58,144.67-35.59l10.95-169.32-9.89-6.74c-87.63,7.27-138.77,32.43-145.74,36.05h.01Z"/>
        </g>
        <g>
          <path class="cls-1" d="m96.17,155.73v198.27c105.83,8.69,163.2,40.65,163.2,40.65l-13.29-206.53s-44.08-23.69-149.9-32.39h0Z"/>
          <path class="cls-2" d="m259.37,396.24c-.27,0-.53-.07-.77-.2-.57-.32-58.34-31.89-162.55-40.45-.83-.07-1.46-.76-1.46-1.58v-198.27c0-.44.19-.87.51-1.17.33-.3.77-.45,1.21-.41,54.8,4.5,92.76,13.09,114.95,19.51,24.13,6.98,35.12,12.81,35.58,13.06.48.26.8.75.84,1.3l13.29,206.54c.04.58-.25,1.14-.74,1.45-.26.17-.55.25-.85.25v-.03Zm-161.62-43.7c91.85,7.77,147.63,33.31,159.84,39.41l-13.05-202.82c-6.31-3.09-51.22-23.62-146.78-31.67v195.08h0Z"/>
        </g>
        <g>
          <path class="cls-1" d="m422.14,155.73v198.27c-105.83,8.69-163.2,40.65-163.2,40.65l15.81-206.53s41.56-23.69,147.39-32.39h0Z"/>
          <path class="cls-2" d="m258.94,396.24c-.3,0-.6-.08-.86-.25-.49-.32-.77-.88-.73-1.46l15.81-206.54c.04-.53.34-1,.8-1.26.43-.25,10.82-6.09,34.34-13.08,21.62-6.42,58.9-15.01,113.7-19.51.44-.03.88.11,1.21.41.33.3.51.73.51,1.17v198.27c0,.83-.64,1.52-1.46,1.58-104.21,8.56-161.98,40.13-162.55,40.45-.24.13-.51.2-.77.2v.02Zm17.33-207.13l-15.53,202.82c12.28-6.13,68.04-31.63,159.8-39.39v-195.08c-53.48,4.51-89.92,12.91-111.15,19.19-19.82,5.87-30.38,11.02-33.13,12.45h.01Z"/>
        </g>
        <g>
          <path class="cls-1" d="m264.11,193.56h-7.7c-4.24,0-7.98-2.15-10.24-5.44h-2.25v196.01c0,7.02,5.59,12.71,12.49,12.71h7.7c6.9,0,12.49-5.69,12.49-12.71v-196.01h-2.25c-2.26,3.29-6,5.44-10.24,5.44h0Z"/>
          <path class="cls-2" d="m264.11,398.43h-7.7c-7.77,0-14.08-6.42-14.08-14.3v-196.01c0-.88.71-1.59,1.59-1.59h2.25c.52,0,1.01.26,1.31.69,2.05,2.98,5.38,4.75,8.93,4.75h7.7c3.55,0,6.88-1.78,8.93-4.75.3-.43.79-.69,1.31-.69h2.25c.88,0,1.59.71,1.59,1.59v196.01c0,7.89-6.32,14.3-14.08,14.3Zm-18.6-208.54v194.24c0,6.13,4.89,11.12,10.9,11.12h7.7c6.01,0,10.9-4.99,10.9-11.12v-194.24c-2.67,3.31-6.67,5.26-10.9,5.26h-7.7c-4.24,0-8.24-1.95-10.9-5.26Z"/>
        </g>
        <g>
          <path class="cls-1" d="m393.46,210.23v-15.73c-34.55,2.84-62.22,7.28-83.86,11.97l.4,15.12c23.53-4.36,51.22-8.35,83.45-11.36h.01Z"/>
          <path class="cls-2" d="m310,223.18c-.36,0-.71-.12-1-.35-.36-.29-.58-.73-.59-1.19l-.4-15.12c-.02-.76.51-1.44,1.25-1.6,25.1-5.44,53.39-9.48,84.06-12,.43-.04.88.11,1.21.41.33.3.51.73.51,1.17v15.73c0,.82-.63,1.51-1.44,1.58-29.56,2.75-57.59,6.57-83.31,11.33-.1.02-.19.03-.29.03h0Zm1.22-15.42l.32,11.94c24.89-4.55,51.9-8.22,80.32-10.9v-12.56c-29.35,2.47-56.47,6.35-80.64,11.52h0Zm82.23,2.49h.02-.02Z"/>
        </g>
        <g>
          <path class="cls-1" d="m323.78,230.98l54.19-6.33-54.19,6.33Z"/>
          <path class="cls-2" d="m323.78,232.57c-.8,0-1.48-.6-1.58-1.41-.1-.87.52-1.66,1.39-1.76l54.19-6.33c.9-.09,1.66.52,1.76,1.39.1.87-.52,1.66-1.39,1.76l-54.19,6.33c-.06,0-.13.01-.19.01h0Z"/>
        </g>
      </g>
      <g>
        <g>
          <path class="cls-1" d="m415.15,255.15l-3.38-10.99c-1.01-3.3-.75-5.74.1-7.54,1.93-4.06,7.84-3.95,10.08-.05l15.92,27.75,4.82,14.87-27.55-24.04h0Z"/>
          <path class="cls-2" d="m441.09,279.71l-4.77-14.71-15.83-27.6c-.93-1.63-2.59-2.16-3.88-2.11-1.45.06-2.62.8-3.21,2.04-.79,1.66-.79,3.78-.01,6.32l3.38,10.99-3.23.99-3.38-10.99c-1.03-3.37-.97-6.32.19-8.76,1.14-2.38,3.43-3.86,6.13-3.97,2.84-.16,5.52,1.35,6.94,3.8l16.06,28.07,4.82,14.87-3.22,1.04v.02Z"/>
        </g>
        <g>
          <path class="cls-1" d="m445.78,294.02l-2.98-14.25c-.51-2.42-1.59-4.68-3.16-6.59l-16.19-19.69s-7.73-2.14-8.63,5.12c-.9,7.27,4.63,12.81,4.63,12.81l26.33,22.6Z"/>
          <path class="cls-2" d="m444.13,294.37l-2.98-14.25c-.45-2.14-1.42-4.17-2.81-5.86l-15.82-19.24c-1.07-.19-3.03-.29-4.35.6-.93.62-1.47,1.68-1.66,3.21-.79,6.37,4.1,11.35,4.15,11.4l-2.39,2.39c-.25-.25-6.11-6.21-5.11-14.21.31-2.54,1.37-4.43,3.15-5.62,3.18-2.12,7.43-.98,7.61-.93l.51.14,16.53,20.1c1.73,2.11,2.95,4.64,3.51,7.31l2.98,14.25-3.31.69v.02Z"/>
        </g>
        <g>
          <path class="cls-1" d="m444.88,314.61s3.11-15.05,2.45-18.15c-.44-2.08-6.92-11.05-11.15-16.75-2.32-3.12-5.65-5.33-9.42-6.26l-9.82-2.42c-2.9-.72-5.93,1.2-6.22,4.17-.4,3.97,1.2,9.85,10.27,16.37l23.9,23.04h0Z"/>
          <path class="cls-2" d="m446.54,314.95l-3.31-.68c1.26-6.11,2.86-15.56,2.45-17.46-.08-.36-1-2.81-10.86-16.09-2.07-2.79-5.08-4.79-8.47-5.63l-9.82-2.42c-.98-.24-2.02-.05-2.84.54-.75.53-1.21,1.3-1.29,2.17-.48,4.85,2.83,9.98,9.58,14.83l-1.97,2.74c-9.83-7.07-11.39-13.64-10.97-17.91.18-1.83,1.17-3.51,2.71-4.59,1.63-1.15,3.67-1.54,5.6-1.05l9.82,2.42c4.15,1.02,7.83,3.47,10.37,6.89,10.85,14.62,11.29,16.64,11.45,17.4.7,3.28-1.91,16.27-2.44,18.85h-.01Z"/>
        </g>
        <g>
          <path class="cls-1" d="m423.39,343.15s15.5-3.31,20.94-25.78c1.9-7.85,1.49-12.07-2.75-16.82-1-1.12-6.64-3.67-16.76-9.12-1.31-.7-6.98-.13-11.42.45-3.85.51-6.39,4.29-5.36,8.04.75,2.72,2.49,5.56,6.24,7.23,7.03,3.12,15.42,4.23,17.43,13.31l-8.32,22.69h0Z"/>
          <path class="cls-2" d="m423.75,344.81l-.71-3.3.35,1.65-.36-1.65c.59-.13,14.55-3.46,19.65-24.52,1.84-7.62,1.29-11.19-2.37-15.29-.49-.5-3.38-1.99-6.72-3.72-2.55-1.32-5.74-2.97-9.58-5.04-.11-.04-1.68-.51-10.39.64-1.36.18-2.58.94-3.34,2.09-.75,1.13-.97,2.52-.61,3.83.79,2.85,2.57,4.92,5.3,6.13,1.33.59,2.76,1.13,4.14,1.64,5.83,2.18,12.44,4.65,14.26,12.85l-3.3.73c-1.42-6.41-6.39-8.27-12.14-10.42-1.43-.53-2.9-1.08-4.32-1.72-3.64-1.62-6.13-4.5-7.18-8.32-.62-2.24-.24-4.65,1.05-6.59,1.3-1.96,3.38-3.26,5.72-3.57,10.39-1.37,11.77-.62,12.44-.26,3.82,2.06,7,3.7,9.53,5.01,5.1,2.63,6.9,3.59,7.69,4.47,5.01,5.61,4.97,10.77,3.14,18.34-5.62,23.23-21.55,26.89-22.23,27.03h-.02Z"/>
        </g>
      </g>
      <g>
        <path class="cls-1" d="m94.56,318.21s-28.08-26.94-19.49-65.93c6.88-31.25,27.23-35.43,32.68-26.37,2.18,3.63-2.87,14.62-2.87,14.62,0,0,4.87,4.01,4.87,6.59s5.16,5.73,7.74,8.89c2.72,3.33.29,9.46-3.44,11.18s-13.47,9.46-13.47,9.46c0,0,7.29,1.66,11.47,4.59,2.87,2.01,2.29,10.32-3.44,13.19s-16.63,6.31-14.05,23.79h0Z"/>
        <path class="cls-2" d="m74.21,260.56c-.39,0-.78-.13-1.1-.4-.71-.61-.8-1.67-.19-2.38.69-.81,17.02-19.86,30.28-18.53,2.88.29,4.99,1.46,6.29,3.47,2.57,4,.65,9.79.57,10.04-.3.88-1.26,1.36-2.14,1.06s-1.36-1.26-1.06-2.14c.42-1.24,1.19-4.95-.22-7.13-.72-1.12-1.96-1.75-3.78-1.93-11.44-1.19-27.21,17.18-27.36,17.36-.34.39-.81.59-1.29.59h0Z"/>
        <path class="cls-2" d="m98.86,280.92c-.4,0-.8-.14-1.13-.43-.7-.62-.76-1.69-.14-2.39.18-.2,4.56-5.09,10-9.12.43-.32.92-.66,1.44-1.02,2.48-1.72,5.88-4.08,6.22-6.84.18-1.46-.48-3.02-2-4.77-.88-1.01-2.26-1.44-4.15-1.34-9.05.5-25.21,13-32.08,22.88-.53.77-1.59.95-2.35.42-.77-.53-.96-1.59-.42-2.35,7.5-10.77,24.27-23.75,34.67-24.32,2.98-.16,5.3.67,6.89,2.49,2.17,2.48,3.11,4.97,2.81,7.4-.52,4.26-4.64,7.11-7.65,9.2-.49.34-.95.66-1.36.96-5.15,3.81-9.45,8.61-9.49,8.65-.33.37-.8.56-1.26.56v.02Z"/>
        <path class="cls-2" d="m96.19,321.53c-.39,0-.79-.14-1.1-.4-.4-.34-39.89-34.87-15.52-84.78,5.34-10.93,11.12-16.65,17.17-17.01,6.71-.38,11,6.05,11.18,6.33.12.19.21.4.24.63.06.38,1.53,9.29-3.84,15.72-.6.72-1.66.81-2.38.21s-.81-1.66-.21-2.38c3.82-4.58,3.34-11.06,3.15-12.63-.78-1.06-3.85-4.76-7.96-4.5-4.68.29-9.63,5.52-14.32,15.12-19.4,39.72,3.56,69.15,11.89,77.98v-14.7c0-.56.28-1.09.75-1.4l12.13-8.12c.11-.07,3.33-2.02,3.8-4.88.25-1.51-.34-3.11-1.75-4.75-1.05-1.22-2.38-1.86-4.06-1.94-6.28-.3-15.49,7.25-18.52,10.17-.67.65-1.74.63-2.39-.04s-.63-1.74.04-2.39c.49-.47,12.05-11.55,21.02-11.12,2.62.12,4.8,1.17,6.47,3.11,2.1,2.44,2.94,4.97,2.52,7.52-.74,4.43-5.15,7.06-5.33,7.17l-11.3,7.57v17.83c0,.66-.38,1.26-.98,1.54-.23.1-.47.16-.71.16v-.02Z"/>
      </g>
    </g>
  </g>
</svg>